<?xml version="1.0" encoding="UTF-8"?>
<!DOCTYPE svg PUBLIC "-//W3C//DTD SVG 1.1//EN" "http://www.w3.org/Graphics/SVG/1.1/DTD/svg11.dtd">
<svg version="1.1" xmlns="http://www.w3.org/2000/svg" xmlns:xlink="http://www.w3.org/1999/xlink" x="0px" y="0px" width="128" height="128" viewBox="0, 0, 128, 128">
  <g id="Background">
    <rect x="0" y="0" width="128" height="128" fill="#000000" fill-opacity="0"/>
  </g>
  <g id="Background"/>
  <g id="Background">
    <path d="M18.093,6 L109.905,6 C116.559,6 122,11.439 122,18.093 L122,109.907 C122,116.561 116.559,122 109.905,122 L18.093,122 C11.439,122 6,116.561 6,109.907 L6,18.093 C6,11.439 11.439,6 18.093,6" fill="#727272"/>
    <path d="M38.603,87.255 L38.603,91.822 L34.035,91.822 L31.752,91.822 L31.752,89.538 L31.752,87.451 L34.035,87.451 L34.035,87.255 z M36.32,82.884 L31.752,82.884 L31.752,78.318 L36.32,78.318 z M36.32,73.75 L31.752,73.75 L31.752,69.183 L36.32,69.183 z M36.32,64.617 L31.752,64.617 L31.752,60.05 L36.32,60.05 z M36.32,55.484 L31.752,55.484 L31.752,50.916 L36.32,50.916 z M36.32,46.349 L31.752,46.349 L31.752,41.783 L36.32,41.783 z M38.329,40.727 L35.79,36.927 L39.589,34.388 L42.128,38.188 z M45.928,35.649 L43.389,31.849 L47.188,29.314 L49.727,33.113 z M53.528,30.579 L50.989,26.78 L54.783,24.246 L57.322,28.045 z M61.118,25.511 L58.579,21.71 L62.373,19.176 L64.912,22.976 z M66.173,24.719 L68.713,20.92 L72.512,23.46 L69.972,27.259 z M73.773,29.798 L76.312,25.999 L80.111,28.533 L77.572,32.334 z M81.373,34.868 L83.912,31.069 L87.706,33.603 L85.167,37.402 z M88.963,39.936 L91.502,36.137 L95.296,38.672 L92.757,42.472 z M92.164,44.915 L96.73,44.915 L96.73,49.482 L92.164,49.482 z M92.164,54.048 L96.73,54.048 L96.73,58.616 L92.164,58.616 z M92.164,63.183 L96.73,63.183 L96.73,67.749 L92.164,67.749 z M92.164,72.317 L96.73,72.317 L96.73,76.879 L92.164,76.879 z M92.164,81.445 L96.73,81.445 L96.73,86.013 L92.164,86.013 z M93.401,87.255 L93.401,91.822 L88.834,91.822 L88.834,87.255 z M84.268,87.255 L84.268,91.822 L79.7,91.822 L79.7,87.255 z M75.133,87.255 L75.133,91.822 L70.567,91.822 L70.567,87.255 z M65.999,87.255 L65.999,91.822 L61.432,91.822 L61.432,87.255 z M56.866,87.255 L56.866,91.822 L52.299,91.822 L52.299,87.255 z M47.736,87.255 L47.736,91.822 L43.17,91.822 L43.17,87.255 z" fill="#EBEDED"/>
    <path d="M26.514,83.792 L6,104.308 L6,97.841 L20.047,83.792 z M39.087,83.792 L45.553,83.792 L10.252,119.095 C9.082,118.096 8.099,116.877 7.379,115.501 z M58.126,83.792 L64.593,83.792 L26.385,122 L19.92,122 z M77.166,83.792 L83.633,83.792 L45.426,122 L38.959,122 z M96.205,83.792 L102.672,83.792 L64.466,122 L57.999,122 z M115.245,83.792 L121.712,83.792 L83.504,122 L77.037,122 z M122,96.079 L122,102.546 L102.544,122 L96.077,122 z" fill="#EBECEC"/>
    <path d="M31.483,83.66 L96.52,83.66 L96.52,107.408 L31.483,107.408 z" fill="#EBEDED"/>
  </g>
  <defs/>
</svg>
